<svg data-v-423bf9ae="" xmlns="http://www.w3.org/2000/svg" viewBox="0 0 230.0591655302857 163" class="iconAbove"><!----><!----><!----><g data-v-423bf9ae="" id="737d35dc-928d-4b79-881d-091e3f15718c" fill="white" transform="matrix(5.270542442006873,0,0,5.270542442006873,5.534070717033146,84.91974496108692)"><path d="M3.78 3.45L3.78 3.45L3.78 3.45Q2.99 3.59 2.29 4.28L2.29 4.28L2.29 4.28Q1.59 4.96 1.40 5.91L1.40 5.91L1.50 7.17L0.93 7.21L0.18 8.26L0.40 8.46L0.40 8.46Q0.92 7.97 1.51 8.08L1.51 8.08L1.80 12.52L1.80 12.52Q1.78 13.74 1.31 13.90L1.31 13.90L1.31 13.90Q0.83 14.07 0.48 13.95L0.48 13.95L0.48 13.95Q0.14 13.84-0.24 13.17L-0.24 13.17L-1.05 13.97L-1.05 13.97Q-0.62 14.59 0.02 14.77L0.02 14.77L0.02 14.77Q0.67 14.94 1.30 14.46L1.30 14.46L1.30 14.46Q1.93 13.99 2.88 12.39L2.88 12.39L2.58 7.94L3.48 7.90L4.16 7.04L2.48 7.08L2.34 5.02L2.34 5.02Q2.30 4.50 3.12 4.34L3.12 4.34L3.12 4.34Q3.94 4.18 3.91 5.05L3.91 5.05L4.01 5.12L4.69 4.30L4.69 4.30Q4.56 3.30 3.78 3.45ZM7.31 6.54L7.31 6.54L7.31 6.54Q6.30 6.56 5.45 7.23L5.45 7.23L5.45 7.23Q4.61 7.90 5.03 8.74L5.03 8.74L6.15 8.07L6.15 8.07Q5.93 6.90 7.35 7.03L7.35 7.03L7.35 7.03Q8.78 7.15 8.59 8.89L8.59 8.89L8.59 8.89Q7.49 8.39 6.61 8.61L6.61 8.61L6.61 8.61Q5.73 8.82 4.99 9.71L4.99 9.71L4.99 9.71Q4.40 10.58 4.62 11.18L4.62 11.18L4.62 11.18Q4.83 11.79 5.31 12.23L5.31 12.23L5.31 12.23Q5.80 12.67 6.40 12.71L6.40 12.71L6.40 12.71Q6.99 12.76 7.40 12.48L7.40 12.48L7.40 12.48Q7.81 12.20 8.61 11.49L8.61 11.49L8.61 11.49Q8.67 12.36 9.17 12.76L9.17 12.76L10.28 11.80L10.19 11.64L10.19 11.64Q9.63 12.10 9.56 10.58L9.56 10.58L9.57 8.14L9.57 8.14Q9.54 7.23 8.93 6.88L8.93 6.88L8.93 6.88Q8.33 6.53 7.31 6.54ZM8.29 9.84L8.29 9.84L8.57 9.47L8.57 11.08L8.57 11.08Q7.70 11.95 7.08 11.90L7.08 11.90L7.08 11.90Q6.46 11.85 6.04 11.48L6.04 11.48L6.04 11.48Q5.61 11.12 5.42 10.64L5.42 10.64L5.42 10.64Q5.23 10.17 5.50 9.71L5.50 9.71L5.50 9.71Q5.76 9.26 6.55 9.19L6.55 9.19L6.55 9.19Q7.33 9.11 8.29 9.84ZM13.60 6.53L13.60 6.53L13.60 6.53Q12.93 6.63 12.48 6.92L12.48 6.92L12.48 6.92Q12.03 7.21 11.67 7.57L11.67 7.57L11.67 7.57Q11.31 7.94 11.22 8.43L11.22 8.43L11.22 8.43Q11.12 8.93 11.55 9.37L11.55 9.37L11.55 9.37Q11.98 9.80 13.03 10.02L13.03 10.02L13.03 10.02Q14.08 10.24 14.48 10.47L14.48 10.47L14.48 10.47Q14.88 10.70 14.97 11.11L14.97 11.11L14.97 11.11Q15.06 11.53 14.76 11.79L14.76 11.79L14.76 11.79Q14.46 12.05 13.69 11.93L13.69 11.93L13.69 11.93Q12.91 11.81 12.50 11.55L12.50 11.55L12.50 11.55Q12.09 11.29 11.73 10.89L11.73 10.89L11.73 10.89Q11.38 10.50 11.64 10.34L11.64 10.34L11.55 10.25L10.79 10.84L10.79 10.84Q10.66 11.20 11.06 11.70L11.06 11.70L11.06 11.70Q11.45 12.21 12.03 12.52L12.03 12.52L12.03 12.52Q12.61 12.82 13.34 12.80L13.34 12.80L13.34 12.80Q14.06 12.78 14.66 12.34L14.66 12.34L14.66 12.34Q15.26 11.90 15.57 11.35L15.57 11.35L15.57 11.35Q15.87 10.81 15.77 10.36L15.77 10.36L15.77 10.36Q15.68 9.91 15.27 9.56L15.27 9.56L15.27 9.56Q14.85 9.20 13.55 8.95L13.55 8.95L13.55 8.95Q12.24 8.70 12.19 8.09L12.19 8.09L12.19 8.09Q12.13 7.48 12.73 7.31L12.73 7.31L12.73 7.31Q13.32 7.14 14.04 7.45L14.04 7.45L14.04 7.45Q14.75 7.76 14.47 8.13L14.47 8.13L14.56 8.24L15.37 7.40L15.37 7.40Q15.26 6.93 14.76 6.68L14.76 6.68L14.76 6.68Q14.26 6.43 13.60 6.53ZM18.16 3.96L17.29 4.63L17.29 4.63Q17.77 4.55 17.62 6.59L17.62 6.59L17.04 6.62L16.11 7.56L16.26 7.83L16.26 7.83Q16.70 7.33 17.53 7.41L17.53 7.41L17.53 7.41Q17.40 11.04 17.53 11.58L17.53 11.58L17.53 11.58Q17.67 12.11 18.25 12.68L18.25 12.68L18.25 12.68Q18.70 12.24 19.97 11.30L19.97 11.30L19.89 10.98L19.89 10.98Q18.59 11.88 18.49 10.99L18.49 10.99L18.49 10.99Q18.39 10.09 18.51 7.46L18.51 7.46L19.35 7.46L19.97 6.75L19.92 6.61L18.56 6.64L18.56 4.83L18.56 4.83Q18.48 4.25 18.16 3.96L18.16 3.96ZM24.04 3.45L24.04 3.45L24.04 3.45Q23.26 3.59 22.56 4.28L22.56 4.28L22.56 4.28Q21.85 4.96 21.66 5.91L21.66 5.91L21.76 7.17L21.19 7.21L20.44 8.26L20.66 8.46L20.66 8.46Q21.18 7.97 21.77 8.08L21.77 8.08L22.06 12.52L22.06 12.52Q22.05 13.74 21.57 13.90L21.57 13.90L21.57 13.90Q21.09 14.07 20.74 13.95L20.74 13.95L20.74 13.95Q20.40 13.84 20.02 13.17L20.02 13.17L19.21 13.97L19.21 13.97Q19.64 14.59 20.29 14.77L20.29 14.77L20.29 14.77Q20.93 14.94 21.56 14.46L21.56 14.46L21.56 14.46Q22.20 13.99 23.14 12.39L23.14 12.39L22.84 7.94L23.74 7.90L24.42 7.04L22.74 7.08L22.60 5.02L22.60 5.02Q22.56 4.50 23.38 4.34L23.38 4.34L23.38 4.34Q24.20 4.18 24.17 5.05L24.17 5.05L24.27 5.12L24.95 4.30L24.95 4.30Q24.82 3.30 24.04 3.45ZM27.32 6.45L27.32 6.45Q26.17 7.21 25.69 7.77L25.69 7.77L25.69 7.77Q25.22 8.33 25.03 8.89L25.03 8.89L25.03 8.89Q24.83 9.46 24.96 10.32L24.96 10.32L24.96 10.32Q25.09 11.17 25.96 11.96L25.96 11.96L25.96 11.96Q26.82 12.75 27.34 12.75L27.34 12.75L27.34 12.75Q27.86 12.76 28.98 11.73L28.98 11.73L28.98 11.73Q29.41 11.34 29.80 10.82L29.80 10.82L29.80 10.82Q30.19 10.31 30.31 9.74L30.31 9.74L30.31 9.74Q30.42 9.17 30.25 8.50L30.25 8.50L30.25 8.50Q30.07 7.83 29.26 7.04L29.26 7.04L29.26 7.04Q28.46 6.25 27.32 6.45L27.32 6.45ZM26.95 7.26L26.95 7.26L26.95 7.26Q27.74 7.08 28.68 8.24L28.68 8.24L28.68 8.24Q29.61 9.41 29.42 10.23L29.42 10.23L29.42 10.23Q29.22 11.06 28.56 11.56L28.56 11.56L28.56 11.56Q27.90 12.05 27.17 11.45L27.17 11.45L27.17 11.45Q26.43 10.84 25.99 10.15L25.99 10.15L25.99 10.15Q25.55 9.46 25.86 8.45L25.86 8.45L25.86 8.45Q26.17 7.43 26.95 7.26ZM33.36 6.45L33.36 6.45Q32.21 7.21 31.74 7.77L31.74 7.77L31.74 7.77Q31.26 8.33 31.07 8.89L31.07 8.89L31.07 8.89Q30.88 9.46 31.00 10.32L31.00 10.32L31.00 10.32Q31.13 11.17 32.00 11.96L32.00 11.96L32.00 11.96Q32.87 12.75 33.39 12.75L33.39 12.75L33.39 12.75Q33.91 12.76 35.02 11.73L35.02 11.73L35.02 11.73Q35.45 11.34 35.84 10.82L35.84 10.82L35.84 10.82Q36.24 10.31 36.35 9.74L36.35 9.74L36.35 9.74Q36.46 9.17 36.29 8.50L36.29 8.50L36.29 8.50Q36.11 7.83 35.31 7.04L35.31 7.04L35.31 7.04Q34.50 6.25 33.36 6.45L33.36 6.45ZM33.00 7.26L33.00 7.26L33.00 7.26Q33.78 7.08 34.72 8.24L34.72 8.24L34.72 8.24Q35.66 9.41 35.46 10.23L35.46 10.23L35.46 10.23Q35.26 11.06 34.60 11.56L34.60 11.56L34.60 11.56Q33.95 12.05 33.21 11.45L33.21 11.45L33.21 11.45Q32.47 10.84 32.03 10.15L32.03 10.15L32.03 10.15Q31.60 9.46 31.90 8.45L31.90 8.45L31.90 8.45Q32.21 7.43 33.00 7.26ZM41.76 3.49L41.76 3.49L40.80 4.12L40.80 4.12Q41.22 4.92 41.14 6.83L41.14 6.83L41.14 6.83Q40.58 6.51 40.15 6.55L40.15 6.55L40.15 6.55Q39.72 6.58 39.11 6.83L39.11 6.83L39.11 6.83Q38.50 7.09 37.88 7.69L37.88 7.69L37.88 7.69Q37.26 8.30 37.07 9.34L37.07 9.34L37.07 9.34Q36.89 10.39 37.60 11.52L37.60 11.52L37.60 11.52Q38.32 12.65 39.02 12.71L39.02 12.71L39.02 12.71Q39.73 12.78 41.19 11.28L41.19 11.28L41.19 11.28Q41.19 12.25 41.61 12.75L41.61 12.75L42.60 11.96L42.60 11.96Q42.05 11.50 42.17 7.76L42.17 7.76L42.17 7.76Q42.29 4.01 41.76 3.49ZM39.32 7.35L39.32 7.35L39.32 7.35Q40.48 7.18 40.82 8.34L40.82 8.34L41.15 8.05L41.13 10.73L41.13 10.73Q40.88 11.29 40.18 11.67L40.18 11.67L40.18 11.67Q39.48 12.04 38.71 10.87L38.71 10.87L38.71 10.87Q37.93 9.69 38.05 8.60L38.05 8.60L38.05 8.60Q38.17 7.51 39.32 7.35Z"></path></g><!----><g data-v-423bf9ae="" id="1f38a528-1eb8-4d6e-9169-802353361563" transform="matrix(1.1332996700537459,0,0,1.1332996700537459,61.43277360529982,-9.171155679716463)" stroke="none" fill="white"><path d="M30.1 27c.2.6.8.9 1.4.9.2 0 .4 0 .6-.1.8-.3 1.1-1.2.8-2L25.7 9.7c-.3-.8-1.2-1.1-2-.8-.8.3-1.1 1.2-.8 2L30.1 27zM18.5 32.5c.4 0 .9-.2 1.2-.6.5-.6.4-1.6-.2-2.1l-9.4-7.5c-.6-.4-1.6-.3-2.1.3s-.4 1.6.2 2.1l9.4 7.5c.3.2.6.3.9.3zM66.2 27.6c.2.1.4.1.6.1.6 0 1.1-.3 1.4-.9l5.6-12.2c.3-.8 0-1.6-.7-2-.8-.3-1.6 0-2 .7l-5.6 12.2c-.4.8-.1 1.7.7 2.1zM87.5 21.2c-.6-.5-1.6-.5-2.1.2L77.9 30c-.5.6-.5 1.6.2 2.1.3.2.6.4 1 .4s.8-.2 1.1-.5l7.5-8.7c.5-.6.5-1.6-.2-2.1zM48.9 25.8c.1 0 .1 0 0 0 .9 0 1.5-.6 1.5-1.4l.4-10.4c0-.8-.6-1.5-1.4-1.5-.8 0-1.5.6-1.5 1.4l-.3 10.3c-.1.9.5 1.6 1.3 1.6zM86.7 60.4c-.1-.4-.3-.7-.6-.9-.6-1-1.8-2.4-3.8-3.7.3-.4.6-.7.7-1.1v-.1c.1-.3 2-8.4-3.9-14.4-4.3-4.3-17.4-7.6-30-7.6-6.8 0-16.5 1-24.1 5.6-.9.5-10.3 6.1-8.9 18.1.1.5.2.9.5 1.3-2.9 2.1-5.8 4.7-5.5 6.7.1.4.4 1.5 1.8 2 .6.2 1.2.3 1.9.3 1.5 0 2.7-.5 3.6-.9v.2c.1.6.1 1.3.3 2.1-.1.1-.1.3-.2.4-1.3.6-2.9 1.7-3 3.3 0 .1 0 .3-.1.4-.9 6.3 1.2 10.5 6.3 12.3 4.7 1.7 13.1 3.8 25.1 3.8 6 0 12.9-.5 20.7-1.9 15.2-2.7 16.4-5.4 15.9-13.1 0-.5-.1-1-.1-1.6 0-1-.5-1.8-1.2-2.3-.5-.4-1.1-.6-1.7-.7 1.1-.1 2.3-.3 3.4-.6.5-.1.9-.5 1.1-1l1.8-5.5c.1-.3.1-.6 0-1 .1 0 0-.1 0-.1zM22.8 81.6c-4.7-1.7-4.9-5.5-4.4-9 0-.2.1-.4.1-.5 0-.1.2-.2.3-.4.4.3 1.4.7 2.7 1.2.2.1.4.1.6.2 3.1 1 7.9 2.2 13.8 3 .9 1.4 2 2.5 3.4 2.5.5 0 .9-.1 1.4-.3.7-.3 1.2-.9 1.5-1.5 10.9.8 24.2-.1 37.2-5.4.5.1.8.2.9.3 0 .6.1 1.1.1 1.6.4 5.9.5 7.5-13.4 10-22.7 4.1-37.4.7-44.2-1.7zm3.8-40.9c7-4.3 16.1-5.2 22.5-5.2 12.7 0 24.6 3.5 27.9 6.7 4.5 4.5 3.3 10.7 3.2 11.4-.1.2-.3.4-.6.6-.4.3-1.1.6-1.9.9-.6.2-1.3.5-2.1.7-1.2.3-2.5.7-4 1-.8.2-1.7.3-2.6.5l-1.8.3c-.8.1-1.6.2-2.4.4-.7.1-1.4.2-2.2.3-.7.1-1.3.2-2 .2-.7.1-1.4.2-2.2.2-1 .1-1.9.2-3 .3-4.3.3-9 .5-13.9.5-10 0-15.8-.9-19-1.8-.9-.3-1.7-.6-2.2-.8-.8-.4-1.2-.8-1.2-1.1-1.2-10.4 7-14.9 7.5-15.1-.1 0 0 0 0 0zm7.2 28.5H33l-1.5-.8c1.1-.7 1.8-1 2.1-1.2v.5c.1.3.1.9.2 1.5zM69.9 68c-.5.7-1 1.1-2 1-1.5-.2-1.5 0-2.2-.7-.4-.4-1.1-1.1-1.9-1.4 0-.1.1-.3.1-.4 1.8.5 3.8 1.1 6 1.5zm-17.7 1.8l.3-.9c.1-.7 1.6-.8 1.9-.8 1.4 0 3 .5 4.1 1.3.1.1.2.1.3.2-.1.1-.2.2-.3.2-.5.4-1 .7-1.5 1.1-1.5.9-3.6 1.5-3.6 1.5s-3 1-4.5-.5c1.5 0 2.7-.8 3.3-2.1zm28.5-10.1c-2.8.2-5.3.1-7.4-.2 1-.2 1.9-.5 2.8-.7 1.3-.4 2.5-.8 3.4-1.3 1.2.6 2.2 1.3 2.8 2-.5.1-1 .2-1.6.2zM19 59.6c1.4.8 3.4 1.4 5.9 1.9l-1.8 3c-.4.7-.2 1.6.5 2.1.2.1.5.2.8.2.5 0 1-.3 1.3-.7l2.4-4c3.4.4 7.6.6 12.4.7l.4 2.3c.1.7.8 1.2 1.5 1.2h.3c.8-.2 1.3-.9 1.2-1.8l-.3-1.8c3.6-.1 8-.2 12.5-.6.8-.1 1.5-.1 2.3-.2.4 0 .7-.1 1.1-.1.5.6.9 1.3 1.2 1.9.3.6.4 1.3.4 1.8v.6c-.1.8-.5 1.2-.5 1.2s-.1 0-.1-.1c-1.6-1.2-3.8-1.9-5.9-1.9-2.6 0-4.4 1.2-4.8 3.2 0 .2-.1.6-.9.6s-2.2-.5-3.3-1.6c-.5-.5-1.1-.8-1.7-.8-1.2 0-1.8.8-2.2 2-.1.3-.2.6-.3 1l-.3 1.5c-.2 1.5-.7 4.1-1.5 4.6-.8-.3-2.1-3.5-2.5-6.2 0-.1 0-.3-.1-.4-.1-.5-.1-.9-.1-1.4 0-3.2-1.9-3.6-2.7-3.6-1 0-2.5.4-6 3.1-.6.4-1.2.9-1.9 1.5-.2.2-.5.4-.7.5-1.2.9-1.9 1-2.2 1-.4 0-.7-.4-1-1l-.3-.9-.3-1.5c-.1-.5-.1-.9-.1-1.2 0-.5-.1-.9-.1-1.2-.2-1.5-1.3-2-2.1-2-.6 0-1.2.2-1.9.5-.9.3-1.9.8-2.9.6.4-1 2.3-2.6 4.3-4zm63.4 5.7c-.9.2-1.8.3-2.6.4-2.4.2-4.8.1-7-.2-3.5-.5-6.6-1.4-9.1-2.3-.2-.6-.4-1.2-.8-1.8 1.3-.2 2.6-.3 3.9-.5C69.4 62 73 63 77.8 63c1.7 0 3.6-.1 5.6-.4l-1 2.7z"></path></g><!----></svg>